<svg width="59" height="16" viewBox="0 0 59 16" fill="none" xmlns="http://www.w3.org/2000/svg">
<path d="M4.54266 0C6.86993 0 8.65268 0.417716 9.89091 1.25315C11.1291 2.07366 11.7483 3.35664 11.7483 5.1021C11.7483 6.19114 11.4946 7.07879 10.9874 7.76504C10.4951 8.43636 9.77902 8.96597 8.83916 9.35385C9.15245 9.74172 9.48065 10.1893 9.82378 10.6965C10.1669 11.1888 10.5026 11.711 10.8308 12.2629C11.1739 12.8 11.5021 13.3669 11.8154 13.9636C12.1287 14.5455 12.4196 15.1198 12.6881 15.6867H8.77203C8.48858 15.1795 8.19767 14.6648 7.8993 14.1427C7.61585 13.6205 7.31748 13.1133 7.0042 12.621C6.70583 12.1287 6.40746 11.6662 6.10909 11.2336C5.81072 10.786 5.51235 10.3832 5.21399 10.0252H3.49091V15.6867H0V0.402797C0.760839 0.253613 1.54406 0.149184 2.34965 0.0895104C3.17016 0.0298367 3.90117 0 4.54266 0ZM4.74406 2.97622C4.49044 2.97622 4.25921 2.98368 4.05035 2.9986C3.85641 3.01352 3.66993 3.02844 3.49091 3.04336V7.25035H4.47552C5.78834 7.25035 6.72821 7.08625 7.2951 6.75804C7.862 6.42984 8.14545 5.8704 8.14545 5.07972C8.14545 4.31888 7.85455 3.78182 7.27273 3.46853C6.70583 3.14033 5.86294 2.97622 4.74406 2.97622Z" fill="#111D5E"/>
<path d="M13.5743 9.89091C13.5743 8.84662 13.7309 7.9366 14.0442 7.16084C14.3724 6.37016 14.7976 5.71375 15.3198 5.19161C15.8419 4.66946 16.4386 4.27413 17.11 4.00559C17.7962 3.73706 18.4974 3.6028 19.2135 3.6028C20.8843 3.6028 22.2046 4.11748 23.1743 5.14685C24.144 6.16131 24.6288 7.66061 24.6288 9.64475C24.6288 9.83869 24.6214 10.055 24.6065 10.2937C24.5915 10.5175 24.5766 10.7189 24.5617 10.8979H16.9981C17.0727 11.5841 17.3934 12.1287 17.9603 12.5315C18.5272 12.9343 19.2881 13.1357 20.2428 13.1357C20.8545 13.1357 21.4512 13.0834 22.033 12.979C22.6298 12.8597 23.1146 12.7179 23.4876 12.5538L23.9351 15.2615C23.7561 15.351 23.5174 15.4406 23.2191 15.5301C22.9207 15.6196 22.585 15.6942 22.2121 15.7538C21.854 15.8284 21.4661 15.8881 21.0484 15.9329C20.6307 15.9776 20.213 16 19.7953 16C18.7361 16 17.8111 15.8434 17.0205 15.5301C16.2447 15.2168 15.5957 14.7916 15.0736 14.2545C14.5664 13.7026 14.186 13.0536 13.9323 12.3077C13.6936 11.5618 13.5743 10.7562 13.5743 9.89091ZM21.4065 8.61538C21.3915 8.33193 21.3393 8.05594 21.2498 7.78741C21.1752 7.51888 21.0484 7.28019 20.8694 7.07133C20.7053 6.86247 20.489 6.69091 20.2205 6.55664C19.9668 6.42238 19.6461 6.35524 19.2582 6.35524C18.8853 6.35524 18.5645 6.42238 18.296 6.55664C18.0274 6.67599 17.8037 6.84009 17.6246 7.04895C17.4456 7.25781 17.3039 7.50396 17.1995 7.78741C17.11 8.05594 17.0428 8.33193 16.9981 8.61538H21.4065Z" fill="#111D5E"/>
<path d="M31.6998 13.3594C32.028 13.3594 32.3413 13.352 32.6397 13.3371C32.9381 13.3221 33.1767 13.2998 33.3558 13.2699V10.7413C33.2215 10.7114 33.0201 10.6816 32.7516 10.6517C32.483 10.6219 32.2369 10.607 32.0131 10.607C31.6998 10.607 31.4015 10.6294 31.118 10.6741C30.8495 10.704 30.6108 10.7711 30.4019 10.8755C30.1931 10.98 30.029 11.1217 29.9096 11.3007C29.7903 11.4797 29.7306 11.7035 29.7306 11.972C29.7306 12.4942 29.9022 12.8597 30.2453 13.0685C30.6033 13.2625 31.0882 13.3594 31.6998 13.3594ZM31.4313 3.6028C32.4159 3.6028 33.2364 3.71469 33.8928 3.93846C34.5492 4.16224 35.0714 4.48298 35.4593 4.9007C35.8621 5.31841 36.1455 5.82564 36.3096 6.42238C36.4737 7.01911 36.5558 7.68298 36.5558 8.41399V15.351C36.0784 15.4555 35.4145 15.5748 34.5642 15.7091C33.7138 15.8583 32.6844 15.9329 31.476 15.9329C30.7152 15.9329 30.0215 15.8657 29.3949 15.7315C28.7833 15.5972 28.2537 15.3809 27.8061 15.0825C27.3586 14.7692 27.0154 14.3664 26.7767 13.8741C26.5381 13.3818 26.4187 12.7776 26.4187 12.0615C26.4187 11.3753 26.553 10.7935 26.8215 10.3161C27.105 9.83869 27.4779 9.45827 27.9404 9.17482C28.4029 8.89137 28.9325 8.68998 29.5292 8.57063C30.1259 8.43636 30.745 8.36923 31.3865 8.36923C31.8192 8.36923 32.1996 8.39161 32.5278 8.43636C32.8709 8.4662 33.1469 8.51095 33.3558 8.57063V8.25734C33.3558 7.69044 33.1842 7.23543 32.8411 6.89231C32.498 6.54918 31.9012 6.37762 31.0509 6.37762C30.484 6.37762 29.9245 6.42238 29.3726 6.51189C28.8206 6.58648 28.3432 6.69837 27.9404 6.84755L27.5152 4.16224C27.7091 4.10256 27.9478 4.04289 28.2313 3.98322C28.5297 3.90863 28.8504 3.84895 29.1935 3.8042C29.5367 3.74452 29.8947 3.69977 30.2677 3.66993C30.6555 3.62517 31.0434 3.6028 31.4313 3.6028Z" fill="#111D5E"/>
<path d="M39.0114 9.8014C39.0114 8.95105 39.1456 8.15291 39.4142 7.40699C39.6976 6.64615 40.1004 5.98974 40.6226 5.43776C41.1447 4.87086 41.7787 4.42331 42.5246 4.0951C43.2706 3.7669 44.1209 3.6028 45.0757 3.6028C45.7023 3.6028 46.2766 3.66247 46.7988 3.78182C47.3209 3.88625 47.8281 4.04289 48.3205 4.25175L47.6267 6.91468C47.3135 6.79534 46.9703 6.69091 46.5974 6.6014C46.2244 6.51189 45.8067 6.46713 45.3442 6.46713C44.3596 6.46713 43.6212 6.77296 43.1288 7.38461C42.6515 7.99627 42.4128 8.80186 42.4128 9.8014C42.4128 10.8606 42.6365 11.6811 43.0841 12.2629C43.5466 12.8448 44.3447 13.1357 45.4785 13.1357C45.8813 13.1357 46.3139 13.0984 46.7764 13.0238C47.2389 12.9492 47.664 12.8298 48.0519 12.6657L48.5219 15.3958C48.134 15.5599 47.6491 15.7016 47.0673 15.821C46.4855 15.9403 45.844 16 45.1428 16C44.0687 16 43.1438 15.8434 42.368 15.5301C41.5922 15.2019 40.9508 14.7618 40.4435 14.2098C39.9512 13.6578 39.5857 13.0089 39.347 12.2629C39.1232 11.5021 39.0114 10.6816 39.0114 9.8014Z" fill="#FFC93E"/>
<path d="M50.6477 0.984616L53.982 0.447552V3.91608H57.9876V6.69091H53.982V10.8308C53.982 11.5319 54.1013 12.0914 54.34 12.5091C54.5936 12.9268 55.0934 13.1357 55.8393 13.1357C56.1974 13.1357 56.5629 13.1058 56.9358 13.0462C57.3237 12.9716 57.6743 12.8746 57.9876 12.7552L58.4575 15.351C58.0547 15.5152 57.6072 15.6569 57.1149 15.7762C56.6225 15.8956 56.0183 15.9552 55.3023 15.9552C54.3922 15.9552 53.6389 15.8359 53.0421 15.5972C52.4454 15.3436 51.968 15.0005 51.61 14.5678C51.2519 14.1203 50.9983 13.5832 50.8491 12.9566C50.7149 12.3301 50.6477 11.6364 50.6477 10.8755V0.984616Z" fill="#111D5E"/>
</svg>
